<?xml version="1.0" encoding="UTF-8" standalone="no"?>
<!DOCTYPE svg PUBLIC "-//W3C//DTD SVG 1.1//EN"
 "http://www.w3.org/Graphics/SVG/1.1/DTD/svg11.dtd">
<!-- Generated by graphviz version 2.40.1 (20161225.0304)
 -->
<!-- Title: %1 Pages: 1 -->
<svg width="249pt" height="515pt"
 viewBox="0.00 0.00 248.96 515.20" xmlns="http://www.w3.org/2000/svg" xmlns:xlink="http://www.w3.org/1999/xlink">
<g id="graph0" class="graph" transform="scale(1 1) rotate(0) translate(4 511.2)">
<title>%1</title>
<polygon fill="#ffffff" stroke="transparent" points="-4,4 -4,-511.2 244.958,-511.2 244.958,4 -4,4"/>
<!-- chainguard.dev/datastore -->
<g id="node1" class="node">
<title>chainguard.dev/datastore</title>
<polygon fill="none" stroke="#000000" points="168.2834,-274.2019 11.622,-274.2019 11.622,-232.9981 168.2834,-232.9981 168.2834,-274.2019"/>
<text text-anchor="middle" x="89.9527" y="-257.8" font-family="Times,serif" font-size="14.00" fill="#000000">chainguard.dev/datastore</text>
<text text-anchor="middle" x="89.9527" y="-241" font-family="Times,serif" font-size="14.00" fill="#000000">[SaaS]</text>
</g>
<!-- infra/datastore -->
<g id="node5" class="node">
<title>infra/datastore</title>
<polygon fill="none" stroke="#000000" points="153.3,-196.6019 56.6054,-196.6019 56.6054,-155.3981 153.3,-155.3981 153.3,-196.6019"/>
<text text-anchor="middle" x="104.9527" y="-180.2" font-family="Times,serif" font-size="14.00" fill="#000000">infra/datastore</text>
<text text-anchor="middle" x="104.9527" y="-163.4" font-family="Times,serif" font-size="14.00" fill="#000000">[SaaS, GCP]</text>
</g>
<!-- chainguard.dev/datastore&#45;&gt;infra/datastore -->
<g id="edge1" class="edge">
<title>chainguard.dev/datastore&#45;&gt;infra/datastore</title>
<path fill="none" stroke="#000000" stroke-dasharray="5,2" d="M93.9724,-232.8046C95.637,-224.1933 97.5954,-214.0616 99.3939,-204.7573"/>
<ellipse fill="#000000" stroke="#000000" cx="100.1627" cy="-200.7801" rx="4" ry="4"/>
</g>
<!-- chainguard.dev/eventing -->
<g id="node2" class="node">
<title>chainguard.dev/eventing</title>
<polygon fill="none" stroke="#000000" points="240.9633,-429.4019 86.9421,-429.4019 86.9421,-388.1981 240.9633,-388.1981 240.9633,-429.4019"/>
<text text-anchor="middle" x="163.9527" y="-413" font-family="Times,serif" font-size="14.00" fill="#000000">chainguard.dev/eventing</text>
<text text-anchor="middle" x="163.9527" y="-396.2" font-family="Times,serif" font-size="14.00" fill="#000000">[SaaS]</text>
</g>
<!-- chainguard.dev/eventing&#45;&gt;chainguard.dev/datastore -->
<g id="edge2" class="edge">
<title>chainguard.dev/eventing&#45;&gt;chainguard.dev/datastore</title>
<path fill="none" stroke="#000000" d="M161.4822,-387.8291C158.4096,-367.1936 151.9018,-335.2545 138.9527,-310.4 133.6545,-300.2307 126.2046,-290.3376 118.7097,-281.7337"/>
<polygon fill="#000000" stroke="#000000" points="121.1939,-279.2634 111.8745,-274.2237 116.017,-283.9751 121.1939,-279.2634"/>
</g>
<!-- chainguard.dev/oidc -->
<g id="node3" class="node">
<title>chainguard.dev/oidc</title>
<polygon fill="none" stroke="#000000" points="129.8581,-351.8019 .0473,-351.8019 .0473,-310.5981 129.8581,-310.5981 129.8581,-351.8019"/>
<text text-anchor="middle" x="64.9527" y="-335.4" font-family="Times,serif" font-size="14.00" fill="#000000">chainguard.dev/oidc</text>
<text text-anchor="middle" x="64.9527" y="-318.6" font-family="Times,serif" font-size="14.00" fill="#000000">[SaaS]</text>
</g>
<!-- chainguard.dev/eventing&#45;&gt;chainguard.dev/oidc -->
<g id="edge3" class="edge">
<title>chainguard.dev/eventing&#45;&gt;chainguard.dev/oidc</title>
<path fill="none" stroke="#000000" d="M137.4225,-388.0046C125.7706,-378.8714 111.9367,-368.0279 99.4945,-358.2752"/>
<polygon fill="#000000" stroke="#000000" points="101.5857,-355.4673 91.5561,-352.0528 97.2673,-360.9765 101.5857,-355.4673"/>
</g>
<!-- infra/gke -->
<g id="node6" class="node">
<title>infra/gke</title>
<polygon fill="none" stroke="#000000" points="186.4953,-119.0019 99.4101,-119.0019 99.4101,-77.7981 186.4953,-77.7981 186.4953,-119.0019"/>
<text text-anchor="middle" x="142.9527" y="-102.6" font-family="Times,serif" font-size="14.00" fill="#000000">infra/gke</text>
<text text-anchor="middle" x="142.9527" y="-85.8" font-family="Times,serif" font-size="14.00" fill="#000000">[SaaS, GCP]</text>
</g>
<!-- chainguard.dev/eventing&#45;&gt;infra/gke -->
<g id="edge4" class="edge">
<title>chainguard.dev/eventing&#45;&gt;infra/gke</title>
<path fill="none" stroke="#000000" stroke-dasharray="5,2" d="M167.7345,-388.1826C173.2598,-355.2886 182.3268,-288.9187 176.9527,-232.8 173.6041,-197.8327 170.8771,-189.1747 161.9527,-155.2 159.5008,-145.8658 156.3294,-135.834 153.2825,-126.8372"/>
<ellipse fill="#000000" stroke="#000000" cx="151.9643" cy="-123.0217" rx="4" ry="4"/>
</g>
<!-- chainguard.dev/oidc&#45;&gt;chainguard.dev/datastore -->
<g id="edge5" class="edge">
<title>chainguard.dev/oidc&#45;&gt;chainguard.dev/datastore</title>
<path fill="none" stroke="#000000" d="M71.6522,-310.4046C74.2584,-302.3152 77.2967,-292.8841 80.1403,-284.0576"/>
<polygon fill="#000000" stroke="#000000" points="83.4995,-285.0443 83.2347,-274.4528 76.8368,-282.8977 83.4995,-285.0443"/>
</g>
<!-- demos/github&#45;issue&#45;opener -->
<g id="node4" class="node">
<title>demos/github&#45;issue&#45;opener</title>
<polygon fill="none" stroke="#000000" points="194.5801,-507.0019 27.3253,-507.0019 27.3253,-465.7981 194.5801,-465.7981 194.5801,-507.0019"/>
<text text-anchor="middle" x="110.9527" y="-490.6" font-family="Times,serif" font-size="14.00" fill="#000000">demos/github&#45;issue&#45;opener</text>
<text text-anchor="middle" x="110.9527" y="-473.8" font-family="Times,serif" font-size="14.00" fill="#000000">[Tenant]</text>
</g>
<!-- demos/github&#45;issue&#45;opener&#45;&gt;chainguard.dev/eventing -->
<g id="edge6" class="edge">
<title>demos/github&#45;issue&#45;opener&#45;&gt;chainguard.dev/eventing</title>
<path fill="none" stroke="#000000" d="M125.1557,-465.6046C130.9184,-457.1672 137.6779,-447.2703 143.926,-438.1222"/>
<polygon fill="#000000" stroke="#000000" points="146.9607,-439.8846 149.7105,-429.6528 141.1802,-435.9366 146.9607,-439.8846"/>
</g>
<!-- demos/github&#45;issue&#45;opener&#45;&gt;chainguard.dev/oidc -->
<g id="edge7" class="edge">
<title>demos/github&#45;issue&#45;opener&#45;&gt;chainguard.dev/oidc</title>
<path fill="none" stroke="#000000" d="M96.3117,-465.7818C89.6495,-455.3993 82.2987,-442.3364 77.9527,-429.6 70.4997,-407.7581 67.2869,-381.8379 65.9175,-362.0848"/>
<polygon fill="#000000" stroke="#000000" points="69.4113,-361.8745 65.3439,-352.0916 62.4228,-362.2757 69.4113,-361.8745"/>
</g>
<!-- infra/datastore&#45;&gt;infra/gke -->
<g id="edge8" class="edge">
<title>infra/datastore&#45;&gt;infra/gke</title>
<path fill="none" stroke="#000000" d="M115.136,-155.2046C119.4381,-146.4193 124.5151,-136.0516 129.1462,-126.5944"/>
<ellipse fill="#000000" stroke="#000000" cx="130.9821" cy="-122.8452" rx="4" ry="4"/>
</g>
<!-- infra/services -->
<g id="node7" class="node">
<title>infra/services</title>
<polygon fill="none" stroke="#000000" points="188.8548,-41.4019 97.0506,-41.4019 97.0506,-.1981 188.8548,-.1981 188.8548,-41.4019"/>
<text text-anchor="middle" x="142.9527" y="-25" font-family="Times,serif" font-size="14.00" fill="#000000">infra/services</text>
<text text-anchor="middle" x="142.9527" y="-8.2" font-family="Times,serif" font-size="14.00" fill="#000000">[SaaS, GCP]</text>
</g>
<!-- infra/gke&#45;&gt;infra/services -->
<g id="edge9" class="edge">
<title>infra/gke&#45;&gt;infra/services</title>
<path fill="none" stroke="#000000" d="M142.9527,-77.6046C142.9527,-69.0803 142.9527,-59.0661 142.9527,-49.8395"/>
<ellipse fill="#000000" stroke="#000000" cx="142.9527" cy="-45.6528" rx="4" ry="4"/>
</g>
</g>
</svg>
