<?xml version="1.0" encoding="UTF-8" standalone="no"?>
<!DOCTYPE svg PUBLIC "-//W3C//DTD SVG 1.1//EN"
 "http://www.w3.org/Graphics/SVG/1.1/DTD/svg11.dtd">
<!-- Generated by graphviz version 2.40.1 (20161225.0304)
 -->
<!-- Title: %1 Pages: 1 -->
<svg width="272pt" height="515pt"
 viewBox="0.00 0.00 271.78 515.20" xmlns="http://www.w3.org/2000/svg" xmlns:xlink="http://www.w3.org/1999/xlink">
<g id="graph0" class="graph" transform="scale(1 1) rotate(0) translate(4 511.2)">
<title>%1</title>
<polygon fill="#ffffff" stroke="transparent" points="-4,4 -4,-511.2 267.776,-511.2 267.776,4 -4,4"/>
<!-- chainguard.dev/datastore -->
<g id="node1" class="node">
<title>chainguard.dev/datastore</title>
<polygon fill="none" stroke="#000000" points="192.336,-274.2019 35.6746,-274.2019 35.6746,-232.9981 192.336,-232.9981 192.336,-274.2019"/>
<text text-anchor="middle" x="114.0053" y="-257.8" font-family="Times,serif" font-size="14.00" fill="#000000">chainguard.dev/datastore</text>
<text text-anchor="middle" x="114.0053" y="-241" font-family="Times,serif" font-size="14.00" fill="#000000">[SaaS]</text>
</g>
<!-- infra/datastore -->
<g id="node5" class="node">
<title>infra/datastore</title>
<polygon fill="none" stroke="#000000" points="158.3526,-196.6019 61.658,-196.6019 61.658,-155.3981 158.3526,-155.3981 158.3526,-196.6019"/>
<text text-anchor="middle" x="110.0053" y="-180.2" font-family="Times,serif" font-size="14.00" fill="#000000">infra/datastore</text>
<text text-anchor="middle" x="110.0053" y="-163.4" font-family="Times,serif" font-size="14.00" fill="#000000">[SaaS, GCP]</text>
</g>
<!-- chainguard.dev/datastore&#45;&gt;infra/datastore -->
<g id="edge1" class="edge">
<title>chainguard.dev/datastore&#45;&gt;infra/datastore</title>
<path fill="none" stroke="#000000" stroke-dasharray="5,2" d="M112.9334,-232.8046C112.494,-224.2803 111.9778,-214.2661 111.5022,-205.0395"/>
<ellipse fill="#000000" stroke="#000000" cx="111.2861" cy="-200.8475" rx="4" ry="4"/>
</g>
<!-- chainguard.dev/eventing -->
<g id="node2" class="node">
<title>chainguard.dev/eventing</title>
<polygon fill="none" stroke="#000000" points="154.0159,-429.4019 -.0053,-429.4019 -.0053,-388.1981 154.0159,-388.1981 154.0159,-429.4019"/>
<text text-anchor="middle" x="77.0053" y="-413" font-family="Times,serif" font-size="14.00" fill="#000000">chainguard.dev/eventing</text>
<text text-anchor="middle" x="77.0053" y="-396.2" font-family="Times,serif" font-size="14.00" fill="#000000">[SaaS]</text>
</g>
<!-- chainguard.dev/eventing&#45;&gt;chainguard.dev/datastore -->
<g id="edge2" class="edge">
<title>chainguard.dev/eventing&#45;&gt;chainguard.dev/datastore</title>
<path fill="none" stroke="#000000" d="M81.9186,-388.1906C88.2766,-361.5213 99.4064,-314.8367 106.7418,-284.0674"/>
<polygon fill="#000000" stroke="#000000" points="110.1571,-284.8337 109.0717,-274.2946 103.348,-283.2103 110.1571,-284.8337"/>
</g>
<!-- chainguard.dev/oidc -->
<g id="node3" class="node">
<title>chainguard.dev/oidc</title>
<polygon fill="none" stroke="#000000" points="243.9107,-351.8019 114.0999,-351.8019 114.0999,-310.5981 243.9107,-310.5981 243.9107,-351.8019"/>
<text text-anchor="middle" x="179.0053" y="-335.4" font-family="Times,serif" font-size="14.00" fill="#000000">chainguard.dev/oidc</text>
<text text-anchor="middle" x="179.0053" y="-318.6" font-family="Times,serif" font-size="14.00" fill="#000000">[SaaS]</text>
</g>
<!-- chainguard.dev/eventing&#45;&gt;chainguard.dev/oidc -->
<g id="edge3" class="edge">
<title>chainguard.dev/eventing&#45;&gt;chainguard.dev/oidc</title>
<path fill="none" stroke="#000000" d="M104.3394,-388.0046C116.3445,-378.8714 130.5975,-368.0279 143.4167,-358.2752"/>
<polygon fill="#000000" stroke="#000000" points="145.7563,-360.8931 151.5957,-352.0528 141.5179,-355.3221 145.7563,-360.8931"/>
</g>
<!-- infra/gke -->
<g id="node6" class="node">
<title>infra/gke</title>
<polygon fill="none" stroke="#000000" points="153.5479,-119.0019 66.4627,-119.0019 66.4627,-77.7981 153.5479,-77.7981 153.5479,-119.0019"/>
<text text-anchor="middle" x="110.0053" y="-102.6" font-family="Times,serif" font-size="14.00" fill="#000000">infra/gke</text>
<text text-anchor="middle" x="110.0053" y="-85.8" font-family="Times,serif" font-size="14.00" fill="#000000">[SaaS, GCP]</text>
</g>
<!-- chainguard.dev/eventing&#45;&gt;infra/gke -->
<g id="edge4" class="edge">
<title>chainguard.dev/eventing&#45;&gt;infra/gke</title>
<path fill="none" stroke="#000000" stroke-dasharray="5,2" d="M64.8447,-388.0234C47.2197,-355.456 17.6497,-290.1715 27.0053,-232.8 32.8594,-196.9009 33.8317,-186.1093 53.0053,-155.2 59.8316,-144.1955 69.1877,-133.7132 78.3465,-124.8178"/>
<ellipse fill="#000000" stroke="#000000" cx="81.3941" cy="-121.952" rx="4" ry="4"/>
</g>
<!-- chainguard.dev/oidc&#45;&gt;chainguard.dev/datastore -->
<g id="edge5" class="edge">
<title>chainguard.dev/oidc&#45;&gt;chainguard.dev/datastore</title>
<path fill="none" stroke="#000000" d="M161.5865,-310.4046C154.3734,-301.7933 145.8868,-291.6616 138.0932,-282.3573"/>
<polygon fill="#000000" stroke="#000000" points="140.5766,-279.8713 131.4722,-274.4528 135.2104,-284.3662 140.5766,-279.8713"/>
</g>
<!-- infra/oidc -->
<g id="node7" class="node">
<title>infra/oidc</title>
<polygon fill="none" stroke="#000000" points="263.5479,-196.6019 176.4627,-196.6019 176.4627,-155.3981 263.5479,-155.3981 263.5479,-196.6019"/>
<text text-anchor="middle" x="220.0053" y="-180.2" font-family="Times,serif" font-size="14.00" fill="#000000">infra/oidc</text>
<text text-anchor="middle" x="220.0053" y="-163.4" font-family="Times,serif" font-size="14.00" fill="#000000">[SaaS, GCP]</text>
</g>
<!-- chainguard.dev/oidc&#45;&gt;infra/oidc -->
<g id="edge6" class="edge">
<title>chainguard.dev/oidc&#45;&gt;infra/oidc</title>
<path fill="none" stroke="#000000" stroke-dasharray="5,2" d="M188.0645,-310.4664C192.4434,-299.8379 197.4967,-286.5953 201.0053,-274.4 207.6559,-251.2837 212.6645,-224.4372 215.8651,-204.6311"/>
<ellipse fill="#000000" stroke="#000000" cx="216.5049" cy="-200.5568" rx="4" ry="4"/>
</g>
<!-- demos/github&#45;issue&#45;opener -->
<g id="node4" class="node">
<title>demos/github&#45;issue&#45;opener</title>
<polygon fill="none" stroke="#000000" points="212.6327,-507.0019 45.3779,-507.0019 45.3779,-465.7981 212.6327,-465.7981 212.6327,-507.0019"/>
<text text-anchor="middle" x="129.0053" y="-490.6" font-family="Times,serif" font-size="14.00" fill="#000000">demos/github&#45;issue&#45;opener</text>
<text text-anchor="middle" x="129.0053" y="-473.8" font-family="Times,serif" font-size="14.00" fill="#000000">[Tenant]</text>
</g>
<!-- demos/github&#45;issue&#45;opener&#45;&gt;chainguard.dev/eventing -->
<g id="edge7" class="edge">
<title>demos/github&#45;issue&#45;opener&#45;&gt;chainguard.dev/eventing</title>
<path fill="none" stroke="#000000" d="M115.0703,-465.6046C109.4163,-457.1672 102.7844,-447.2703 96.6542,-438.1222"/>
<polygon fill="#000000" stroke="#000000" points="99.4532,-436.0117 90.9788,-429.6528 93.638,-439.9085 99.4532,-436.0117"/>
</g>
<!-- demos/github&#45;issue&#45;opener&#45;&gt;chainguard.dev/oidc -->
<g id="edge8" class="edge">
<title>demos/github&#45;issue&#45;opener&#45;&gt;chainguard.dev/oidc</title>
<path fill="none" stroke="#000000" d="M143.9364,-465.7832C150.7641,-455.401 158.3514,-442.338 163.0053,-429.6 170.96,-407.8275 174.9707,-381.9041 176.9869,-362.1321"/>
<polygon fill="#000000" stroke="#000000" points="180.4766,-362.4023 177.892,-352.1275 173.5051,-361.7715 180.4766,-362.4023"/>
</g>
<!-- infra/datastore&#45;&gt;infra/gke -->
<g id="edge9" class="edge">
<title>infra/datastore&#45;&gt;infra/gke</title>
<path fill="none" stroke="#000000" d="M110.0053,-155.2046C110.0053,-146.6803 110.0053,-136.6661 110.0053,-127.4395"/>
<ellipse fill="#000000" stroke="#000000" cx="110.0053" cy="-123.2528" rx="4" ry="4"/>
</g>
<!-- infra/services -->
<g id="node8" class="node">
<title>infra/services</title>
<polygon fill="none" stroke="#000000" points="155.9074,-41.4019 64.1032,-41.4019 64.1032,-.1981 155.9074,-.1981 155.9074,-41.4019"/>
<text text-anchor="middle" x="110.0053" y="-25" font-family="Times,serif" font-size="14.00" fill="#000000">infra/services</text>
<text text-anchor="middle" x="110.0053" y="-8.2" font-family="Times,serif" font-size="14.00" fill="#000000">[SaaS, GCP]</text>
</g>
<!-- infra/gke&#45;&gt;infra/services -->
<g id="edge10" class="edge">
<title>infra/gke&#45;&gt;infra/services</title>
<path fill="none" stroke="#000000" d="M110.0053,-77.6046C110.0053,-69.0803 110.0053,-59.0661 110.0053,-49.8395"/>
<ellipse fill="#000000" stroke="#000000" cx="110.0053" cy="-45.6528" rx="4" ry="4"/>
</g>
<!-- infra/oidc&#45;&gt;infra/gke -->
<g id="edge11" class="edge">
<title>infra/oidc&#45;&gt;infra/gke</title>
<path fill="none" stroke="#000000" d="M190.5273,-155.2046C176.9642,-145.6365 160.7404,-134.1913 146.4211,-124.0897"/>
<ellipse fill="#000000" stroke="#000000" cx="142.8332" cy="-121.5586" rx="4" ry="4"/>
</g>
</g>
</svg>
